<?xml version="1.0" encoding="UTF-8"?>
<svg viewBox="0 0 24 24" xmlns="http://www.w3.org/2000/svg">
  <path fill="currentColor" d="M12 0c6.627 0 12 5.373 12 12s-5.373 12-12 12S0 18.627 0 12 5.373 0 12 0zM8.951 9.404c-.102 0-.195.004-.281.012l.281-.012zM6.54 14.949c-.162.162-.162.425 0 .587.162.162.425.162.587 0 .162-.162.162-.425 0-.587-.162-.162-.425-.162-.587 0zm1.12-1.12c-.162.162-.162.425 0 .587.162.162.425.162.587 0 .162-.162.162-.425 0-.587-.162-.162-.425-.162-.587 0zm1.12-1.12c-.162.162-.162.425 0 .587.162.162.425.162.587 0 .162-.162.162-.425 0-.587-.162-.162-.425-.162-.587 0zm1.12-1.12c-.162.162-.162.425 0 .587.162.162.425.162.587 0 .162-.162.162-.425 0-.587-.162-.162-.425-.162-.587 0zm1.12-1.12c-.162.162-.162.425 0 .587.162.162.425.162.587 0 .162-.162.162-.425 0-.587-.162-.162-.425-.162-.587 0zm1.12-1.12c-.162.162-.162.425 0 .587.162.162.425.162.587 0 .162-.162.162-.425 0-.587-.162-.162-.425-.162-.587 0zm1.12-1.12c-.162.162-.162.425 0 .587.162.162.425.162.587 0 .162-.162.162-.425 0-.587-.162-.162-.425-.162-.587 0zm1.12-1.12c-.162.162-.162.425 0 .587.162.162.425.162.587 0 .162-.162.162-.425 0-.587-.162-.162-.425-.162-.587 0zm1.12-1.12c-.162.162-.162.425 0 .587.162.162.425.162.587 0 .162-.162.162-.425 0-.587-.162-.162-.425-.162-.587 0z"/>
</svg>
